<svg width="82px" height="81px" viewBox="0 0 82 81" version="1.1" xmlns="http://www.w3.org/2000/svg" xmlns:xlink="http://www.w3.org/1999/xlink">
    <g id="Mobile-Landing-Page" stroke="none" stroke-width="1" fill="none" fill-rule="evenodd">
        <g id="Content" transform="translate(-100.000000, -932.000000)" fill="#FFFFFF" fill-rule="nonzero">
            <g id="Group-3" transform="translate(29.000000, 902.000000)">
                <g id="Github_white-Copy" transform="translate(71.000000, 30.000000)">
                    <path d="M41.0003395,0 C18.3594453,0 0,18.4586513 0,41.2303523 C0,59.4473034 11.7478452,74.9024552 28.0385345,80.3543632 C30.0876008,80.736031 30.8398757,79.4599364 30.8398757,78.3709202 C30.8398757,77.3877333 30.8018546,74.1398026 30.784202,70.694552 C19.3778679,73.188706 16.9709956,65.829825 16.9709956,65.829825 C15.1059243,61.0640998 12.4186462,59.796881 12.4186462,59.796881 C8.69868764,57.237864 12.699052,57.2904372 12.699052,57.2904372 C16.8161955,57.5806139 18.9840779,61.5393068 18.9840779,61.5393068 C22.6408942,67.8426272 28.5755826,66.0203177 30.9152391,64.9668054 C31.2832292,62.302642 32.3457835,60.4823808 33.5183274,59.4534484 C24.4115918,58.4108607 14.8384186,54.8754844 14.8384186,39.0768999 C14.8384186,34.5754059 16.4400579,30.8973312 19.0628359,28.0099023 C18.6371351,26.9707284 17.2337486,22.7778459 19.4600207,17.098576 C19.4600207,17.098576 22.9029684,15.9904425 30.7380335,21.3249142 C34.0085282,20.4113698 37.5159761,19.9532319 41.0003395,19.9375282 C44.484703,19.9532319 47.9948664,20.4113698 51.2714719,21.3249142 C59.0970317,15.9904425 62.5352267,17.098576 62.5352267,17.098576 C64.7669302,22.7778459 63.3628648,26.9707284 62.9371643,28.0099023 C65.5660527,30.8973312 67.1568289,34.5754059 67.1568289,39.0768999 C67.1568289,54.9130366 57.5653239,58.3999363 48.435504,59.4206754 C49.9061064,60.7001841 51.2164769,63.2093588 51.2164769,67.0560776 C51.2164769,72.5721659 51.1689507,77.0122105 51.1689507,78.3709202 C51.1689507,79.4681295 51.9069675,80.7537828 53.9852289,80.348901 C70.2670917,74.8908482 82,59.4411585 82,41.2303523 C82,18.4586513 63.6432707,0 41.0003395,0" id="Fill-51"></path>
                    <path d="M16.1195925,60.537678 C16.0409316,60.7185536 15.7617743,60.7720352 15.5074571,60.6482464 C15.2484087,60.5298662 15.1029157,60.2840917 15.1868994,60.103216 C15.2637859,59.9175331 15.5435348,59.8664553 15.8019918,59.9896431 C16.0616317,60.1086243 16.2094906,60.3568024 16.1195925,60.537678" id="Fill-52"></path>
                    <path d="M17.5606258,62.2691051 C17.3902926,62.4295496 17.0573147,62.355036 16.8313866,62.1014496 C16.5977697,61.8484642 16.5540035,61.5101488 16.7267026,61.3473006 C16.9023587,61.1868562 17.2252822,61.2619705 17.4594906,61.5149561 C17.6931073,61.7709462 17.7386478,62.1068579 17.5606258,62.2691051" id="Fill-53"></path>
                    <path d="M19.0328833,63.8872445 C18.8140522,64.0416798 18.4562341,63.8968592 18.2350374,63.5741674 C18.0162064,63.2514758 18.0162064,62.8644861 18.2397688,62.7094499 C18.4615569,62.5544138 18.8140522,62.693826 19.0382061,63.0141141 C19.2564457,63.3416131 19.2564457,63.7292037 19.0328833,63.8872445" id="Fill-54"></path>
                    <path d="M20.6841518,66.8091348 C20.4883868,67.028469 20.0714252,66.9695791 19.7662447,66.6703233 C19.453967,66.3776773 19.3670261,65.9624447 19.5633824,65.7431105 C19.7615132,65.5231754 20.1808406,65.5850697 20.4883868,65.8819219 C20.7982988,66.1739671 20.8929285,66.5922043 20.6841518,66.8091348" id="Fill-55"></path>
                    <path d="M23.839189,67.9930641 C23.7539043,68.2772973 23.3572724,68.406494 22.9577199,68.28571 C22.5587516,68.1613205 22.2976405,67.8284132 22.3782519,67.5411756 C22.4612001,67.2551397 22.8595843,67.1205347 23.2620575,67.2497315 C23.6604418,67.3735201 23.9221369,67.7040237 23.839189,67.9930641" id="Fill-56"></path>
                    <path d="M26.8361543,67.7542347 C26.84592,68.0534905 26.5127386,68.3016686 26.1002829,68.306476 C25.6855294,68.3166916 25.3500501,68.0745226 25.3454545,67.780074 C25.3454545,67.4778135 25.6711681,67.232039 26.0859215,67.224828 C26.4983773,67.2164152 26.8361543,67.4567814 26.8361543,67.7542347" id="Fill-57"></path>
                    <path d="M29.8126235,67.6285363 C29.862237,67.9205813 29.5743632,68.2204383 29.1630324,68.299759 C28.7586246,68.3772772 28.3842155,68.1970024 28.3328712,67.9073612 C28.2826808,67.6081052 28.5757468,67.3082484 28.9795777,67.2307302 C29.3914854,67.1562167 29.7601254,67.331684 29.8126235,67.6285363" id="Fill-58"></path>
                </g>
            </g>
        </g>
    </g>
</svg>
