<svg width="82px" height="86px" viewBox="0 0 82 86" version="1.1" xmlns="http://www.w3.org/2000/svg" xmlns:xlink="http://www.w3.org/1999/xlink">
    <g id="Mobile-Landing-Page" stroke="none" stroke-width="1" fill="none" fill-rule="evenodd">
        <g id="Content" transform="translate(-100.000000, -701.000000)" fill="#FFFFFF">
            <g id="Group-Copy" transform="translate(29.000000, 671.000000)">
                <g id="Glitch_Purple_RGB" transform="translate(71.000000, 30.000000)">
                    <path d="M5.765625,0 L0,14.761194 L0,75.0895522 L20.5,75.0895522 L20.5,86 L32.03125,86 L42.921875,75.0895522 L59.578125,75.0895522 L82,52.6268657 L82,0 L5.765625,0 Z M74.3125,48.7761194 L61.5,61.6119403 L41,61.6119403 L30.109375,72.5223881 L30.109375,61.6119403 L12.8125,61.6119403 L12.8125,7.70149254 L74.3125,7.70149254 L74.3125,48.7761194 Z M61.5,22.4626866 L61.5,44.9253731 L53.8125,44.9253731 L53.8125,22.4626866 L61.5,22.4626866 Z M41,22.4626866 L41,44.9253731 L33.3125,44.9253731 L33.3125,22.4626866 L41,22.4626866 Z" id="Shape"></path>
                </g>
            </g>
        </g>
    </g>
</svg>
