<svg width="82px" height="78px" viewBox="0 0 82 78" version="1.1" xmlns="http://www.w3.org/2000/svg" xmlns:xlink="http://www.w3.org/1999/xlink">
    <g id="Mobile-Landing-Page" stroke="none" stroke-width="1" fill="none" fill-rule="evenodd">
        <g id="Content" transform="translate(-100.000000, -1155.000000)" fill="#FFFFFF" fill-rule="nonzero">
            <g id="Group-2" transform="translate(29.000000, 1123.000000)">
                <g id="Twitter_Logo_WhiteOnImage" transform="translate(71.000000, 32.000000)">
                    <g id="Logo__x2014__FIXED">
                        <path d="M25.7808,77.1177225 C56.7112,77.1177225 73.636,47.4978507 73.636,21.8550716 C73.636,21.021776 73.636,20.1884804 73.6032,19.3551848 C76.8832,16.6280354 79.7368,13.1812217 82,9.27988311 C78.9824,10.8328431 75.7352,11.8555241 72.324,12.3479261 C75.8008,9.96167044 78.4576,6.13608597 79.7368,1.5908371 C76.4896,3.82558446 72.8816,5.41642157 69.044,6.28759427 C65.9608,2.49988688 61.5984,0.151508296 56.7768,0.151508296 C47.4944,0.151508296 39.9504,8.86323529 39.9504,19.5824472 C39.9504,21.0975302 40.1144,22.574736 40.3768,24.0140649 C26.404,23.2186463 14.0056,15.4538462 5.7072,3.71195324 C4.264,6.59061086 3.444,9.92379336 3.444,13.4842383 C3.444,20.2263575 6.4288,26.1730581 10.9224,29.6577489 C8.1672,29.5441176 5.576,28.6729449 3.3128,27.2336161 C3.3128,27.3093703 3.3128,27.3851244 3.3128,27.4987557 C3.3128,36.89227 9.1184,44.7707014 16.7936,46.5509238 C15.3832,47.0054487 13.9072,47.2327112 12.3656,47.2327112 C11.2832,47.2327112 10.2336,47.1190799 9.2168,46.8918175 C11.3488,54.6187406 17.5808,60.2245475 24.928,60.3760558 C19.1552,65.603092 11.9064,68.7090121 4.0344,68.7090121 C2.6896,68.7090121 1.3448,68.6332579 0.0328,68.4438725 C7.4456,73.8981712 16.3016,77.1177225 25.7808,77.1177225" id="Path"></path>
                    </g>
                </g>
            </g>
        </g>
    </g>
</svg>
